<?xml version="1.0" encoding="utf-8"?>
<!-- Generator: Adobe Illustrator 15.1.0, SVG Export Plug-In . SVG Version: 6.00 Build 0)  -->
<!DOCTYPE svg PUBLIC "-//W3C//DTD SVG 1.1//EN" "http://www.w3.org/Graphics/SVG/1.1/DTD/svg11.dtd">
<svg version="1.1" id="Layer_2" xmlns="http://www.w3.org/2000/svg" xmlns:xlink="http://www.w3.org/1999/xlink" x="0px" y="0px"
	 width="793.774px" height="659.914px" viewBox="0 0 793.774 659.914" enable-background="new 0 0 793.774 659.914"
	 xml:space="preserve">
<g>
	<g>
		<rect width="100%" height="100%" fill="#f5f5f5"/>
		<circle fill="none" stroke="#000000" stroke-width="4" stroke-miterlimit="10" cx="329.958" cy="329.957" r="327.958"/>
		<circle fill="none" stroke="#000000" stroke-width="4" stroke-miterlimit="10" cx="329.958" cy="329.957" r="202.667"/>
		<circle fill="none" stroke="#000000" stroke-width="4" stroke-miterlimit="10" cx="329.957" cy="329.957" r="103"/>
		<circle fill="none" stroke="#000000" stroke-width="4" stroke-miterlimit="10" cx="329.958" cy="329.957" r="55"/>
		<circle fill="none" stroke="#000000" stroke-width="4" stroke-miterlimit="10" cx="329.958" cy="329.958" r="12.333"/>
		<circle cx="329.958" cy="329.957" r="7.917"/>
	</g>
	<g>
		<circle cx="340.555" cy="315.561" r="7.917"/>
		<circle cx="323.555" cy="312.394" r="7.917"/>
		<circle cx="284.055" cy="359.561" r="7.917"/>
		<circle cx="295.055" cy="371.561" r="7.917"/>
		<circle cx="351.555" cy="429.228" r="7.917"/>
		<circle cx="331.472" cy="432.894" r="7.917"/>
		<circle cx="526.389" cy="372.727" r="7.917"/>
		<circle cx="648.889" cy="256.061" r="7.917"/>
	</g>
	<g>
		<g>
			<g>
				<path fill="none" stroke="#000000" stroke-width="5" stroke-miterlimit="10" d="M642.189,503.347
					c-52.812-7.924-165.051-27.703-165.051-27.703c-61-14-108.75-21.25-145-43c-34.464-20.679-54.19-49.44-47.715-77.25
					c13.215-56.75,42.382-38.417,42.382-38.417"/>
				<g>
					<polygon points="638.242,495.713 664.098,506.609 636.257,510.103 					"/>
				</g>
			</g>
		</g>
		<g>
			<g>
				<path fill="none" stroke="#000000" stroke-width="5" stroke-miterlimit="10" stroke-dasharray="35,8" d="M326.139,315.644
					c0,0-58.196,18.881-22.25,78.5c34.417,57.083,94.251,30.167,155.584,6.167c58.98-23.079,117.036-29.205,213.443-180.375"/>
				<g>
					<polygon points="676.034,227.769 684.385,200.983 663.757,220.005 					"/>
				</g>
			</g>
		</g>
	</g>
	<g>
		<path d="M592.639,328.894l32.5-8l-2-4l-30.5,5.5c-4.25-9.5-8.25-5.5-8.25-5.5h-7.853v-5.125c3.647-0.375,5.353-1.375,6.353-5.125
			s2.75-4.5,2.75-4.5l-4-4.5c-6.5,4.75-9,4.75-9,4.75l-1.205,4.25c-8.955,4.25-2.795,5.75-2.795,5.75l-0.75,4.5c0,0-14-4-4.75,17
			c0.336,0.763,0.673,1.472,1.01,2.152l-2.76,2.598v2l5.063-0.533c8.145,12.405,15.832,4.345,16.438,6.283c1.25,4,5,5.75,5.5,4.068
			s1.25-0.818,4.25-1.431l5.25,5.362l2.25-2.5l-2.25-2.862h4.5v-2.888l-15.25-9.5C590.139,334.644,592.639,328.894,592.639,328.894z
			"/>
		<path d="M547.139,484.394l32.5-8l-2-4l-30.5,5.5c-4.25-9.5-8.25-5.5-8.25-5.5h-7.853v-5.125c3.647-0.375,5.353-1.375,6.353-5.125
			s2.75-4.5,2.75-4.5l-4-4.5c-6.5,4.75-9,4.75-9,4.75l-1.205,4.25c-8.955,4.25-2.795,5.75-2.795,5.75l-0.75,4.5c0,0-14-4-4.75,17
			c0.336,0.763,0.673,1.472,1.01,2.152l-2.76,2.598v2l5.063-0.533c8.145,12.405,15.832,4.345,16.438,6.283c1.25,4,5,5.75,5.5,4.068
			s1.25-0.818,4.25-1.431l5.25,5.362l2.25-2.5l-2.25-2.862h4.5v-2.888l-15.25-9.5C544.639,490.144,547.139,484.394,547.139,484.394z
			"/>
	</g>
	<g>
		
			<line fill="none" stroke="#000000" stroke-width="2" stroke-miterlimit="10" x1="393.139" y1="232.311" x2="343.139" y2="314.311"/>
		
			<line fill="none" stroke="#000000" stroke-width="2" stroke-miterlimit="10" x1="253.139" y1="236.978" x2="320.472" y2="306.978"/>
		
			<line fill="none" stroke="#000000" stroke-width="2" stroke-miterlimit="10" x1="221.806" y1="360.978" x2="278.472" y2="360.978"/>
		
			<line fill="none" stroke="#000000" stroke-width="2" stroke-miterlimit="10" x1="250.139" y1="426.311" x2="293.806" y2="370.978"/>
		
			<line fill="none" stroke="#000000" stroke-width="2" stroke-miterlimit="10" x1="320.472" y1="478.311" x2="330.472" y2="436.311"/>
		
			<line fill="none" stroke="#000000" stroke-width="2" stroke-miterlimit="10" x1="382.472" y1="548.311" x2="355.139" y2="433.644"/>
	</g>
	<g>
		<g>
			<path d="M698.974,196.978l-4.321-13.483h3.341l1.641,5.701c0.46,1.621,0.88,3.141,1.2,4.821h0.06
				c0.341-1.621,0.761-3.221,1.221-4.761l1.721-5.761h3.24l-4.541,13.483H698.974z"/>
			<path d="M720.695,190.096c0,4.441-2.661,7.102-6.621,7.102c-3.981,0-6.342-3.021-6.342-6.882c0-4.041,2.601-7.062,6.562-7.062
				C718.435,183.254,720.695,186.355,720.695,190.096z M710.953,190.256c0,2.66,1.24,4.521,3.28,4.521
				c2.061,0,3.241-1.96,3.241-4.581c0-2.441-1.141-4.521-3.241-4.521C712.153,185.675,710.953,187.636,710.953,190.256z"/>
			<path d="M725.074,196.978v-5.521l-4.262-7.962h3.501l1.36,3.241c0.42,0.98,0.721,1.7,1.04,2.581h0.04
				c0.3-0.84,0.62-1.62,1.021-2.581l1.36-3.241h3.421l-4.441,7.862v5.621H725.074z"/>
			<path d="M735.313,193.517l-0.96,3.461h-3.141l4.101-13.483h4.001l4.201,13.483h-3.301l-1.041-3.461H735.313z M738.734,191.236
				l-0.84-2.861c-0.24-0.8-0.48-1.8-0.681-2.601h-0.04c-0.2,0.8-0.4,1.821-0.62,2.601l-0.8,2.861H738.734z"/>
			<path d="M756.056,196.357c-0.94,0.32-2.721,0.76-4.501,0.76c-2.461,0-4.241-0.62-5.481-1.8c-1.221-1.181-1.9-2.941-1.9-4.921
				c0.02-4.481,3.28-7.042,7.701-7.042c1.741,0,3.081,0.34,3.741,0.64l-0.64,2.46c-0.74-0.34-1.641-0.58-3.121-0.58
				c-2.541,0-4.481,1.42-4.481,4.361c0,2.8,1.761,4.421,4.262,4.421c0.68,0,1.24-0.08,1.479-0.18v-2.841h-2.08v-2.38h5.021V196.357z
				"/>
			<path d="M766.454,191.276h-4.961v3.201h5.541v2.5h-8.582v-13.483h8.302v2.5h-5.261v2.801h4.961V191.276z"/>
			<path d="M769.112,183.675c0.98-0.16,2.421-0.28,4.061-0.28c2.001,0,3.401,0.3,4.361,1.061c0.82,0.64,1.26,1.6,1.26,2.84
				c0,1.7-1.22,2.881-2.38,3.301v0.06c0.94,0.38,1.46,1.26,1.8,2.5c0.421,1.541,0.82,3.301,1.081,3.821h-3.121
				c-0.2-0.4-0.54-1.48-0.92-3.141c-0.381-1.7-0.961-2.141-2.221-2.161h-0.9v5.301h-3.021V183.675z M772.133,189.476h1.2
				c1.521,0,2.421-0.76,2.421-1.94c0-1.22-0.841-1.86-2.24-1.86c-0.74,0-1.161,0.04-1.381,0.1V189.476z"/>
			<path d="M784.553,196.978v-1.84l1.66-1.5c2.86-2.561,4.241-4.021,4.261-5.541c0-1.06-0.62-1.9-2.12-1.9
				c-1.12,0-2.101,0.56-2.78,1.06l-0.86-2.16c0.96-0.74,2.5-1.34,4.24-1.34c2.961,0,4.562,1.72,4.562,4.061
				c0,2.201-1.561,3.941-3.461,5.622l-1.2,1v0.04h4.921v2.5H784.553z"/>
		</g>
		<g>
			<path d="M679.974,514.644l-4.321-13.482h3.341l1.641,5.701c0.46,1.621,0.88,3.141,1.2,4.821h0.06
				c0.341-1.62,0.761-3.221,1.221-4.761l1.721-5.762h3.24l-4.541,13.482H679.974z"/>
			<path d="M701.695,507.763c0,4.441-2.661,7.102-6.621,7.102c-3.981,0-6.342-3.021-6.342-6.882c0-4.04,2.601-7.062,6.562-7.062
				C699.435,500.921,701.695,504.023,701.695,507.763z M691.953,507.923c0,2.66,1.24,4.521,3.28,4.521
				c2.061,0,3.241-1.96,3.241-4.581c0-2.44-1.141-4.521-3.241-4.521C693.153,503.342,691.953,505.302,691.953,507.923z"/>
			<path d="M706.074,514.644v-5.521l-4.262-7.962h3.501l1.36,3.24c0.42,0.98,0.721,1.701,1.04,2.581h0.04
				c0.3-0.841,0.62-1.62,1.021-2.581l1.36-3.24h3.421l-4.441,7.861v5.621H706.074z"/>
			<path d="M716.313,511.183l-0.96,3.461h-3.141l4.101-13.482h4.001l4.201,13.482h-3.301l-1.041-3.461H716.313z M719.734,508.904
				l-0.84-2.861c-0.24-0.8-0.48-1.801-0.681-2.601h-0.04c-0.2,0.8-0.4,1.821-0.62,2.601l-0.8,2.861H719.734z"/>
			<path d="M737.056,514.025c-0.94,0.319-2.721,0.76-4.501,0.76c-2.461,0-4.241-0.62-5.481-1.801c-1.221-1.18-1.9-2.94-1.9-4.921
				c0.02-4.481,3.28-7.042,7.701-7.042c1.741,0,3.081,0.341,3.741,0.641l-0.64,2.461c-0.74-0.34-1.641-0.58-3.121-0.58
				c-2.541,0-4.481,1.42-4.481,4.361c0,2.8,1.761,4.42,4.262,4.42c0.68,0,1.24-0.08,1.479-0.18v-2.841h-2.08v-2.38h5.021V514.025z"
				/>
			<path d="M747.454,508.943h-4.961v3.201h5.541v2.5h-8.582v-13.482h8.302v2.5h-5.261v2.801h4.961V508.943z"/>
			<path d="M750.112,501.341c0.98-0.16,2.421-0.279,4.061-0.279c2.001,0,3.401,0.3,4.361,1.061c0.82,0.64,1.26,1.6,1.26,2.84
				c0,1.7-1.22,2.881-2.38,3.301v0.061c0.94,0.379,1.46,1.26,1.8,2.5c0.421,1.541,0.82,3.301,1.081,3.82h-3.121
				c-0.2-0.399-0.54-1.48-0.92-3.141c-0.381-1.699-0.961-2.141-2.221-2.16h-0.9v5.301h-3.021V501.341z M753.133,507.143h1.2
				c1.521,0,2.421-0.761,2.421-1.94c0-1.221-0.841-1.86-2.24-1.86c-0.74,0-1.161,0.04-1.381,0.1V507.143z"/>
			<path d="M769.413,504.342h-0.04l-2.48,1.181l-0.5-2.281l3.461-1.6h2.501v13.002h-2.941V504.342z"/>
		</g>
		<g>
			<path d="M217.974,184.645l-4.321-13.483h3.341l1.641,5.701c0.46,1.621,0.88,3.141,1.2,4.821h0.06
				c0.341-1.621,0.761-3.221,1.221-4.761l1.721-5.761h3.24l-4.541,13.483H217.974z"/>
			<path d="M239.695,177.763c0,4.441-2.661,7.102-6.621,7.102c-3.981,0-6.342-3.021-6.342-6.882c0-4.041,2.601-7.062,6.562-7.062
				C237.435,170.921,239.695,174.022,239.695,177.763z M229.953,177.923c0,2.66,1.24,4.521,3.28,4.521
				c2.061,0,3.241-1.96,3.241-4.581c0-2.441-1.141-4.521-3.241-4.521C231.153,173.342,229.953,175.303,229.953,177.923z"/>
			<path d="M244.074,184.645v-5.521l-4.262-7.962h3.501l1.36,3.241c0.42,0.98,0.721,1.7,1.04,2.581h0.04
				c0.3-0.84,0.62-1.62,1.021-2.581l1.36-3.241h3.421l-4.441,7.862v5.621H244.074z"/>
			<path d="M254.313,181.184l-0.96,3.461h-3.141l4.101-13.483h4.001l4.201,13.483h-3.301l-1.041-3.461H254.313z M257.734,178.903
				l-0.84-2.861c-0.24-0.8-0.48-1.8-0.681-2.601h-0.04c-0.2,0.8-0.4,1.821-0.62,2.601l-0.8,2.861H257.734z"/>
			<path d="M275.056,184.024c-0.94,0.32-2.721,0.76-4.501,0.76c-2.461,0-4.241-0.62-5.481-1.8c-1.221-1.181-1.9-2.941-1.9-4.921
				c0.02-4.481,3.28-7.042,7.701-7.042c1.741,0,3.081,0.34,3.741,0.64l-0.64,2.46c-0.74-0.34-1.641-0.58-3.121-0.58
				c-2.541,0-4.481,1.42-4.481,4.361c0,2.8,1.761,4.421,4.262,4.421c0.68,0,1.24-0.08,1.479-0.18v-2.841h-2.08v-2.38h5.021V184.024z
				"/>
			<path d="M285.454,178.943h-4.961v3.201h5.541v2.5h-8.582v-13.483h8.302v2.5h-5.261v2.801h4.961V178.943z"/>
			<path d="M288.112,171.342c0.98-0.16,2.421-0.28,4.061-0.28c2.001,0,3.401,0.3,4.361,1.061c0.82,0.64,1.26,1.6,1.26,2.84
				c0,1.7-1.22,2.881-2.38,3.301v0.06c0.94,0.38,1.46,1.26,1.8,2.5c0.421,1.541,0.82,3.301,1.081,3.821h-3.121
				c-0.2-0.4-0.54-1.48-0.92-3.141c-0.381-1.7-0.961-2.141-2.221-2.161h-0.9v5.301h-3.021V171.342z M291.133,177.143h1.2
				c1.521,0,2.421-0.76,2.421-1.94c0-1.22-0.841-1.86-2.24-1.86c-0.74,0-1.161,0.04-1.381,0.1V177.143z"/>
			<path d="M307.413,174.342h-0.04l-2.48,1.18l-0.5-2.28l3.461-1.601h2.501v13.003h-2.941V174.342z"/>
		</g>
		<g>
			<path d="M351.307,184.644l-4.321-13.483h3.341l1.641,5.701c0.46,1.621,0.88,3.141,1.2,4.821h0.06
				c0.341-1.621,0.761-3.221,1.221-4.761l1.721-5.761h3.24l-4.541,13.483H351.307z"/>
			<path d="M373.028,177.763c0,4.441-2.661,7.102-6.621,7.102c-3.981,0-6.342-3.021-6.342-6.882c0-4.041,2.601-7.062,6.562-7.062
				C370.768,170.921,373.028,174.022,373.028,177.763z M363.286,177.923c0,2.66,1.24,4.521,3.28,4.521
				c2.061,0,3.241-1.96,3.241-4.581c0-2.441-1.141-4.521-3.241-4.521C364.486,173.342,363.286,175.302,363.286,177.923z"/>
			<path d="M377.407,184.644v-5.521l-4.262-7.962h3.501l1.36,3.241c0.42,0.98,0.721,1.7,1.04,2.581h0.04
				c0.3-0.84,0.62-1.62,1.021-2.581l1.36-3.241h3.421l-4.441,7.862v5.621H377.407z"/>
			<path d="M387.646,181.183l-0.96,3.461h-3.141l4.101-13.483h4.001l4.201,13.483h-3.301l-1.041-3.461H387.646z M391.067,178.903
				l-0.84-2.861c-0.24-0.8-0.48-1.8-0.681-2.601h-0.04c-0.2,0.8-0.4,1.821-0.62,2.601l-0.8,2.861H391.067z"/>
			<path d="M408.389,184.024c-0.94,0.32-2.721,0.76-4.501,0.76c-2.461,0-4.241-0.62-5.481-1.8c-1.221-1.181-1.9-2.941-1.9-4.921
				c0.02-4.481,3.28-7.042,7.701-7.042c1.741,0,3.081,0.34,3.741,0.64l-0.64,2.46c-0.74-0.34-1.641-0.58-3.121-0.58
				c-2.541,0-4.481,1.42-4.481,4.361c0,2.8,1.761,4.421,4.262,4.421c0.68,0,1.24-0.08,1.479-0.18v-2.841h-2.08v-2.38h5.021V184.024z
				"/>
			<path d="M418.787,178.943h-4.961v3.201h5.541v2.5h-8.582v-13.483h8.302v2.5h-5.261v2.801h4.961V178.943z"/>
			<path d="M421.445,171.341c0.98-0.16,2.421-0.28,4.061-0.28c2.001,0,3.401,0.3,4.361,1.061c0.82,0.64,1.26,1.6,1.26,2.84
				c0,1.7-1.22,2.881-2.38,3.301v0.06c0.94,0.38,1.46,1.26,1.8,2.5c0.421,1.541,0.82,3.301,1.081,3.821h-3.121
				c-0.2-0.4-0.54-1.48-0.92-3.141c-0.381-1.7-0.961-2.141-2.221-2.161h-0.9v5.301h-3.021V171.341z M424.466,177.143h1.2
				c1.521,0,2.421-0.76,2.421-1.94c0-1.22-0.841-1.86-2.24-1.86c-0.74,0-1.161,0.04-1.381,0.1V177.143z"/>
			<path d="M436.886,184.644v-1.84l1.66-1.5c2.86-2.561,4.241-4.021,4.261-5.541c0-1.06-0.62-1.9-2.12-1.9
				c-1.12,0-2.101,0.56-2.78,1.06l-0.86-2.16c0.96-0.74,2.5-1.34,4.24-1.34c2.961,0,4.562,1.72,4.562,4.061
				c0,2.201-1.561,3.941-3.461,5.622l-1.2,1v0.04h4.921v2.5H436.886z"/>
		</g>
		<g>
			<path d="M208.146,188.162h3.041v10.922h5.361v2.561h-8.402V188.162z"/>
			<path d="M226.468,199.284c0,0.92,0.04,1.82,0.16,2.36h-2.741l-0.18-0.98h-0.061c-0.64,0.78-1.64,1.2-2.8,1.2
				c-1.98,0-3.161-1.44-3.161-3.001c0-2.541,2.28-3.741,5.741-3.741v-0.12c0-0.54-0.28-1.28-1.78-1.28c-1,0-2.061,0.34-2.7,0.74
				l-0.561-1.96c0.68-0.38,2.021-0.88,3.801-0.88c3.261,0,4.281,1.92,4.281,4.241V199.284z M223.526,197.023
				c-1.6,0-2.84,0.38-2.84,1.541c0,0.78,0.52,1.16,1.2,1.16c0.74,0,1.38-0.5,1.58-1.12c0.04-0.16,0.06-0.34,0.06-0.52V197.023z"/>
			<path d="M238.107,198.504c0,1.28,0.04,2.32,0.08,3.141h-2.641l-0.141-1.38h-0.06c-0.38,0.6-1.3,1.601-3.061,1.601
				c-2.001,0-3.44-1.24-3.44-4.261v-5.741h3.04v5.261c0,1.42,0.46,2.28,1.541,2.28c0.84,0,1.34-0.58,1.52-1.06
				c0.08-0.18,0.12-0.4,0.12-0.66v-5.821h3.041V198.504z"/>
			<path d="M240.546,194.983c0-1.22-0.04-2.24-0.08-3.121h2.641l0.14,1.36h0.06c0.4-0.64,1.381-1.58,3.021-1.58
				c2,0,3.5,1.34,3.5,4.221v5.781h-3.04v-5.421c0-1.26-0.44-2.12-1.541-2.12c-0.84,0-1.34,0.58-1.56,1.14
				c-0.08,0.2-0.101,0.48-0.101,0.76v5.641h-3.04V194.983z"/>
			<path d="M259.606,201.384c-0.54,0.26-1.56,0.46-2.721,0.46c-3.16,0-5.181-1.94-5.181-5.001c0-2.86,1.96-5.201,5.602-5.201
				c0.8,0,1.68,0.14,2.32,0.38l-0.48,2.26c-0.36-0.16-0.9-0.3-1.7-0.3c-1.601,0-2.641,1.14-2.62,2.741c0,1.78,1.2,2.74,2.68,2.74
				c0.721,0,1.28-0.12,1.741-0.32L259.606,201.384z"/>
			<path d="M261.286,187.441h3.04v5.601h0.04c0.32-0.44,0.721-0.78,1.2-1.02c0.46-0.24,1.021-0.38,1.58-0.38
				c1.94,0,3.421,1.34,3.421,4.301v5.701h-3.04v-5.381c0-1.28-0.44-2.16-1.581-2.16c-0.8,0-1.3,0.52-1.52,1.08
				c-0.08,0.18-0.101,0.44-0.101,0.66v5.801h-3.04V187.441z"/>
			<path d="M216.328,210.142h-5.042l-0.279,2c0.279-0.04,0.52-0.04,0.84-0.04c1.24,0,2.521,0.28,3.421,0.94
				c0.98,0.66,1.58,1.74,1.58,3.261c0,2.42-2.08,4.561-5.581,4.561c-1.58,0-2.9-0.36-3.621-0.74l0.561-2.281
				c0.56,0.28,1.74,0.64,2.921,0.64c1.26,0,2.601-0.6,2.601-1.98c0-1.34-1.061-2.16-3.661-2.16c-0.72,0-1.221,0.04-1.74,0.12
				l0.84-6.822h7.162V210.142z"/>
			<path d="M223.365,217.504c0.801,0.42,2.081,0.84,3.381,0.84c1.4,0,2.141-0.58,2.141-1.46c0-0.84-0.64-1.32-2.261-1.88
				c-2.24-0.8-3.721-2.041-3.721-4.001c0-2.3,1.94-4.041,5.102-4.041c1.54,0,2.641,0.3,3.44,0.68l-0.68,2.441
				c-0.521-0.26-1.501-0.641-2.801-0.641c-1.32,0-1.961,0.621-1.961,1.3c0,0.86,0.74,1.241,2.501,1.901
				c2.381,0.88,3.48,2.12,3.48,4.021c0,2.261-1.721,4.181-5.421,4.181c-1.54,0-3.061-0.42-3.821-0.84L223.365,217.504z"/>
			<path d="M236.445,216.724c0.08,1.26,1.341,1.86,2.761,1.86c1.04,0,1.881-0.14,2.7-0.42l0.4,2.061c-1,0.42-2.221,0.62-3.541,0.62
				c-3.32,0-5.221-1.92-5.221-4.981c0-2.48,1.54-5.221,4.941-5.221c3.16,0,4.36,2.46,4.36,4.881c0,0.52-0.06,0.98-0.1,1.2H236.445z
				 M240.026,214.643c0-0.74-0.32-1.98-1.721-1.98c-1.28,0-1.8,1.181-1.88,1.98H240.026z"/>
			<path d="M244.666,214.143c0-1.28-0.04-2.36-0.08-3.281h2.641l0.14,1.36h0.04c0.72-1.02,1.84-1.58,3.261-1.58
				c2.141,0,4.061,1.86,4.061,4.981c0,3.561-2.261,5.241-4.44,5.241c-1.181,0-2.101-0.48-2.541-1.121h-0.04v4.861h-3.04V214.143z
				 M247.706,216.444c0,0.24,0.021,0.44,0.061,0.64c0.199,0.82,0.899,1.44,1.78,1.44c1.32,0,2.101-1.1,2.101-2.76
				c0-1.561-0.7-2.741-2.061-2.741c-0.86,0-1.621,0.64-1.82,1.54c-0.04,0.16-0.061,0.36-0.061,0.541V216.444z"/>
			<path d="M260.026,208.222v2.641h2.181v2.241h-2.181v3.541c0,1.18,0.3,1.721,1.2,1.721c0.42,0,0.62-0.02,0.9-0.08l0.02,2.3
				c-0.38,0.14-1.12,0.26-1.96,0.26c-0.98,0-1.801-0.34-2.301-0.84c-0.561-0.58-0.84-1.521-0.84-2.9v-4.001h-1.301v-2.241h1.301
				v-1.82L260.026,208.222z"/>
			<path d="M276.946,207.642v1.92l-5.361,11.083h-3.221l5.361-10.462v-0.04h-5.961v-2.5H276.946z"/>
			<path d="M288.047,207.642v1.92l-5.361,11.083h-3.221l5.361-10.462v-0.04h-5.961v-2.5H288.047z"/>
		</g>
		<g>
			<path d="M374.813,188.162h3.041v10.922h5.361v2.561h-8.402V188.162z"/>
			<path d="M393.135,199.285c0,0.92,0.04,1.82,0.16,2.36h-2.741l-0.18-0.98h-0.061c-0.64,0.78-1.64,1.2-2.8,1.2
				c-1.98,0-3.161-1.44-3.161-3.001c0-2.541,2.28-3.741,5.741-3.741v-0.12c0-0.54-0.28-1.28-1.78-1.28c-1,0-2.061,0.34-2.7,0.74
				l-0.561-1.96c0.68-0.38,2.021-0.88,3.801-0.88c3.261,0,4.281,1.92,4.281,4.241V199.285z M390.193,197.024
				c-1.6,0-2.84,0.38-2.84,1.541c0,0.78,0.52,1.16,1.2,1.16c0.74,0,1.38-0.5,1.58-1.12c0.04-0.16,0.06-0.34,0.06-0.52V197.024z"/>
			<path d="M404.774,198.504c0,1.28,0.04,2.32,0.08,3.141h-2.641l-0.141-1.38h-0.06c-0.38,0.6-1.3,1.601-3.061,1.601
				c-2.001,0-3.44-1.24-3.44-4.261v-5.741h3.04v5.261c0,1.42,0.46,2.28,1.541,2.28c0.84,0,1.34-0.58,1.52-1.06
				c0.08-0.18,0.12-0.4,0.12-0.66v-5.821h3.041V198.504z"/>
			<path d="M407.213,194.983c0-1.22-0.04-2.24-0.08-3.121h2.641l0.14,1.36h0.06c0.4-0.64,1.381-1.58,3.021-1.58
				c2,0,3.5,1.34,3.5,4.221v5.781h-3.04v-5.421c0-1.26-0.44-2.12-1.541-2.12c-0.84,0-1.34,0.58-1.56,1.14
				c-0.08,0.2-0.101,0.48-0.101,0.76v5.641h-3.04V194.983z"/>
			<path d="M426.273,201.385c-0.54,0.26-1.56,0.46-2.721,0.46c-3.16,0-5.181-1.94-5.181-5.001c0-2.86,1.96-5.201,5.602-5.201
				c0.8,0,1.68,0.14,2.32,0.38l-0.48,2.26c-0.36-0.16-0.9-0.3-1.7-0.3c-1.601,0-2.641,1.14-2.62,2.741c0,1.78,1.2,2.74,2.68,2.74
				c0.721,0,1.28-0.12,1.741-0.32L426.273,201.385z"/>
			<path d="M427.953,187.442h3.04v5.601h0.04c0.32-0.44,0.721-0.78,1.2-1.02c0.46-0.24,1.021-0.38,1.58-0.38
				c1.94,0,3.421,1.34,3.421,4.301v5.701h-3.04v-5.381c0-1.28-0.44-2.16-1.581-2.16c-0.8,0-1.3,0.52-1.52,1.08
				c-0.08,0.18-0.101,0.44-0.101,0.66v5.801h-3.04V187.442z"/>
			<path d="M374.333,220.645v-1.84l1.66-1.5c2.86-2.561,4.241-4.021,4.261-5.541c0-1.06-0.62-1.9-2.12-1.9
				c-1.12,0-2.101,0.56-2.78,1.06l-0.86-2.16c0.96-0.74,2.5-1.34,4.24-1.34c2.961,0,4.562,1.72,4.562,4.061
				c0,2.201-1.561,3.941-3.461,5.622l-1.2,1v0.04h4.921v2.5H374.333z"/>
			<path d="M395.015,214.083c0,4.001-1.62,6.782-4.921,6.782c-3.361,0-4.842-3.021-4.861-6.702c0-3.781,1.58-6.741,4.941-6.741
				C393.634,207.422,395.015,210.523,395.015,214.083z M388.273,214.164c0,2.98,0.72,4.401,1.88,4.401c1.181,0,1.82-1.48,1.82-4.441
				c0-2.88-0.62-4.401-1.84-4.401C389.033,209.723,388.273,211.123,388.273,214.164z"/>
			<path d="M404.173,217.184l-0.96,3.461h-3.141l4.101-13.483h4.001l4.201,13.483h-3.301l-1.041-3.461H404.173z M407.594,214.904
				l-0.84-2.861c-0.24-0.8-0.48-1.8-0.681-2.601h-0.04c-0.2,0.8-0.4,1.821-0.62,2.601l-0.8,2.861H407.594z"/>
			<path d="M422.975,217.504c0,1.28,0.04,2.32,0.08,3.141h-2.641l-0.141-1.38h-0.06c-0.38,0.6-1.3,1.601-3.061,1.601
				c-2.001,0-3.44-1.24-3.44-4.261v-5.741h3.04v5.261c0,1.42,0.46,2.28,1.54,2.28c0.841,0,1.341-0.58,1.521-1.06
				c0.08-0.18,0.12-0.4,0.12-0.66v-5.821h3.041V217.504z"/>
			<path d="M434.675,219.225c0,1.88-0.38,3.421-1.501,4.401c-1.06,0.92-2.521,1.2-3.96,1.2c-1.301,0-2.641-0.26-3.521-0.74
				l0.601-2.321c0.62,0.36,1.681,0.74,2.841,0.74c1.44,0,2.54-0.76,2.54-2.581v-0.62h-0.04c-0.58,0.8-1.521,1.26-2.641,1.26
				c-2.42,0-4.141-1.96-4.141-4.761c0-3.161,2.021-5.161,4.441-5.161c1.34,0,2.18,0.58,2.68,1.4h0.04l0.101-1.18h2.641
				c-0.04,0.64-0.08,1.46-0.08,2.921V219.225z M431.634,214.844c0-0.18-0.02-0.38-0.06-0.56c-0.221-0.8-0.801-1.34-1.641-1.34
				c-1.12,0-2,1-2,2.781c0,1.46,0.72,2.601,1.98,2.601c0.8,0,1.42-0.521,1.62-1.22c0.08-0.24,0.1-0.561,0.1-0.82V214.844z"/>
			<path d="M450.094,207.642v1.92l-5.361,11.083h-3.221l5.361-10.462v-0.04h-5.961v-2.5H450.094z"/>
			<path d="M461.193,207.642v1.92l-5.361,11.083h-3.221l5.361-10.462v-0.04h-5.961v-2.5H461.193z"/>
		</g>
		<g>
			<path d="M148.767,352.496h3.041v8.521c0,3.842-1.841,5.182-4.781,5.182c-0.721,0-1.641-0.12-2.24-0.32l0.34-2.461
				c0.42,0.141,0.96,0.24,1.561,0.24c1.28,0,2.08-0.58,2.08-2.66V352.496z"/>
			<path d="M163.468,362.837c0,1.281,0.04,2.32,0.08,3.141h-2.641l-0.141-1.38h-0.06c-0.38,0.601-1.3,1.601-3.061,1.601
				c-2.001,0-3.44-1.24-3.44-4.262v-5.74h3.04v5.261c0,1.421,0.46,2.28,1.54,2.28c0.841,0,1.341-0.58,1.521-1.061
				c0.08-0.18,0.12-0.399,0.12-0.66v-5.82h3.041V362.837z"/>
			<path d="M165.906,359.477c0-1.28-0.04-2.36-0.08-3.28h2.641l0.14,1.359h0.04c0.72-1.02,1.84-1.58,3.261-1.58
				c2.141,0,4.061,1.861,4.061,4.981c0,3.561-2.261,5.241-4.44,5.241c-1.181,0-2.101-0.48-2.541-1.121h-0.04v4.861h-3.04V359.477z
				 M168.946,361.778c0,0.239,0.021,0.44,0.061,0.64c0.199,0.82,0.899,1.44,1.78,1.44c1.32,0,2.101-1.101,2.101-2.761
				c0-1.561-0.7-2.74-2.061-2.74c-0.86,0-1.621,0.641-1.82,1.54c-0.04,0.16-0.061,0.36-0.061,0.54V361.778z"/>
			<path d="M181.007,353.476c0,0.84-0.62,1.52-1.641,1.52c-0.96,0-1.58-0.68-1.58-1.52c0-0.86,0.64-1.521,1.62-1.521
				S180.986,352.616,181.007,353.476z M177.866,365.978v-9.781h3.04v9.781H177.866z"/>
			<path d="M186.746,353.556v2.641h2.181v2.24h-2.181v3.541c0,1.18,0.3,1.721,1.2,1.721c0.42,0,0.62-0.021,0.9-0.08l0.02,2.3
				c-0.38,0.14-1.12,0.261-1.96,0.261c-0.98,0-1.801-0.341-2.301-0.841c-0.56-0.58-0.84-1.521-0.84-2.9v-4.001h-1.301v-2.24h1.301
				v-1.82L186.746,353.556z"/>
			<path d="M192.926,362.058c0.08,1.26,1.341,1.859,2.761,1.859c1.04,0,1.881-0.14,2.7-0.42l0.4,2.061
				c-1,0.42-2.221,0.621-3.541,0.621c-3.32,0-5.221-1.921-5.221-4.982c0-2.48,1.54-5.221,4.941-5.221c3.16,0,4.36,2.461,4.36,4.881
				c0,0.521-0.06,0.98-0.1,1.201H192.926z M196.507,359.977c0-0.739-0.32-1.98-1.721-1.98c-1.28,0-1.8,1.181-1.88,1.98H196.507z"/>
			<path d="M201.146,359.417c0-1.44-0.021-2.381-0.08-3.221h2.601l0.119,1.8h0.08c0.501-1.44,1.681-2.04,2.641-2.04
				c0.28,0,0.421,0.02,0.641,0.061v2.859c-0.24-0.039-0.48-0.08-0.82-0.08c-1.12,0-1.881,0.601-2.08,1.541
				c-0.04,0.2-0.061,0.439-0.061,0.68v4.961h-3.04V359.417z"/>
			<path d="M154.328,374.476h-5.042l-0.279,2c0.279-0.039,0.52-0.039,0.84-0.039c1.24,0,2.521,0.279,3.421,0.939
				c0.98,0.66,1.58,1.74,1.58,3.262c0,2.42-2.08,4.561-5.581,4.561c-1.58,0-2.9-0.36-3.621-0.74l0.561-2.281
				c0.56,0.281,1.74,0.641,2.921,0.641c1.26,0,2.601-0.6,2.601-1.98c0-1.34-1.061-2.16-3.661-2.16c-0.72,0-1.221,0.04-1.74,0.12
				l0.84-6.821h7.162V374.476z"/>
			<path d="M172.668,379.818c-0.06-1.621-0.12-3.581-0.12-5.541h-0.04c-0.439,1.72-1,3.641-1.521,5.221l-1.64,5.261h-2.381
				l-1.44-5.201c-0.44-1.601-0.88-3.521-1.22-5.28h-0.04c-0.061,1.82-0.141,3.9-0.221,5.58l-0.26,5.121h-2.82l0.86-13.482h4.061
				l1.32,4.501c0.439,1.561,0.84,3.241,1.14,4.821h0.08c0.36-1.561,0.82-3.341,1.28-4.842l1.421-4.48h4.001l0.72,13.482h-2.961
				L172.668,379.818z"/>
			<path d="M186.287,382.619c0,0.92,0.04,1.82,0.16,2.359h-2.741l-0.18-0.979h-0.061c-0.64,0.78-1.64,1.2-2.8,1.2
				c-1.98,0-3.161-1.44-3.161-3.001c0-2.54,2.28-3.741,5.741-3.741v-0.119c0-0.541-0.28-1.281-1.78-1.281c-1,0-2.061,0.341-2.7,0.74
				l-0.561-1.96c0.68-0.38,2.021-0.88,3.801-0.88c3.261,0,4.281,1.92,4.281,4.24V382.619z M183.346,380.357
				c-1.6,0-2.84,0.381-2.84,1.541c0,0.78,0.52,1.16,1.2,1.16c0.74,0,1.38-0.5,1.58-1.12c0.04-0.16,0.06-0.341,0.06-0.521V380.357z"
				/>
			<path d="M188.706,378.417c0-1.44-0.021-2.381-0.08-3.221h2.601l0.119,1.8h0.08c0.501-1.44,1.681-2.04,2.641-2.04
				c0.28,0,0.421,0.02,0.641,0.061v2.859c-0.24-0.039-0.48-0.08-0.82-0.08c-1.12,0-1.881,0.601-2.08,1.541
				c-0.04,0.2-0.061,0.439-0.061,0.68v4.961h-3.04V378.417z"/>
			<path d="M209.287,371.976v1.92l-5.361,11.082h-3.221l5.361-10.462v-0.04h-5.961v-2.5H209.287z"/>
			<path d="M212.005,382.798c0.4,0.039,0.721,0.02,1.32,0c0.94-0.061,1.881-0.32,2.561-0.801c0.86-0.58,1.42-1.439,1.641-2.42
				l-0.04-0.021c-0.58,0.601-1.44,0.94-2.621,0.94c-2.2,0-4.04-1.521-4.04-4.061c0-2.541,2.04-4.682,4.9-4.682
				c3.341,0,4.921,2.561,4.921,5.602c0,2.721-0.859,4.682-2.28,6.002c-1.24,1.119-2.961,1.72-4.98,1.8
				c-0.501,0.04-1.041,0.021-1.381,0V382.798z M213.846,376.257c0,1.119,0.62,2.08,1.84,2.08c0.841,0,1.421-0.381,1.7-0.84
				c0.101-0.201,0.141-0.4,0.141-0.781c0.02-1.38-0.5-2.74-1.921-2.74C214.586,373.976,213.846,374.896,213.846,376.257z"/>
		</g>
		<g>
			<path d="M187.1,416.83h3.041v8.521c0,3.842-1.841,5.182-4.781,5.182c-0.721,0-1.641-0.12-2.24-0.32l0.34-2.461
				c0.42,0.141,0.96,0.24,1.561,0.24c1.28,0,2.08-0.58,2.08-2.66V416.83z"/>
			<path d="M201.801,427.171c0,1.281,0.04,2.32,0.08,3.141h-2.641l-0.141-1.38h-0.06c-0.38,0.601-1.3,1.601-3.061,1.601
				c-2.001,0-3.44-1.24-3.44-4.262v-5.74h3.04v5.261c0,1.421,0.46,2.28,1.54,2.28c0.841,0,1.341-0.58,1.521-1.061
				c0.08-0.18,0.12-0.399,0.12-0.66v-5.82h3.041V427.171z"/>
			<path d="M204.239,423.811c0-1.28-0.04-2.36-0.08-3.28h2.641l0.14,1.359h0.04c0.72-1.02,1.84-1.58,3.261-1.58
				c2.141,0,4.061,1.861,4.061,4.981c0,3.561-2.261,5.241-4.44,5.241c-1.181,0-2.101-0.48-2.541-1.121h-0.04v4.861h-3.04V423.811z
				 M207.279,426.112c0,0.239,0.021,0.44,0.061,0.64c0.199,0.82,0.899,1.44,1.78,1.44c1.32,0,2.101-1.101,2.101-2.761
				c0-1.561-0.7-2.74-2.061-2.74c-0.86,0-1.621,0.641-1.82,1.54c-0.04,0.16-0.061,0.36-0.061,0.54V426.112z"/>
			<path d="M219.34,417.81c0,0.84-0.62,1.52-1.641,1.52c-0.96,0-1.58-0.68-1.58-1.52c0-0.86,0.64-1.521,1.62-1.521
				S219.319,416.95,219.34,417.81z M216.199,430.312v-9.781h3.04v9.781H216.199z"/>
			<path d="M225.079,417.89v2.641h2.181v2.24h-2.181v3.541c0,1.18,0.3,1.721,1.2,1.721c0.42,0,0.62-0.021,0.9-0.08l0.02,2.3
				c-0.38,0.14-1.12,0.261-1.96,0.261c-0.98,0-1.801-0.341-2.301-0.841c-0.56-0.58-0.84-1.521-0.84-2.9v-4.001h-1.301v-2.24h1.301
				v-1.82L225.079,417.89z"/>
			<path d="M231.259,426.392c0.08,1.26,1.341,1.859,2.761,1.859c1.04,0,1.881-0.14,2.7-0.42l0.4,2.061
				c-1,0.42-2.221,0.621-3.541,0.621c-3.32,0-5.221-1.921-5.221-4.982c0-2.48,1.54-5.221,4.941-5.221c3.16,0,4.36,2.461,4.36,4.881
				c0,0.521-0.06,0.98-0.1,1.201H231.259z M234.84,424.311c0-0.739-0.32-1.98-1.721-1.98c-1.28,0-1.8,1.181-1.88,1.98H234.84z"/>
			<path d="M239.479,423.751c0-1.44-0.021-2.381-0.08-3.221h2.601l0.119,1.8h0.08c0.501-1.44,1.681-2.04,2.641-2.04
				c0.28,0,0.421,0.02,0.641,0.061v2.859c-0.24-0.039-0.48-0.08-0.82-0.08c-1.12,0-1.881,0.601-2.08,1.541
				c-0.04,0.2-0.061,0.439-0.061,0.68v4.961h-3.04V423.751z"/>
			<path d="M184.919,447.132c0.4,0.039,0.721,0.02,1.32,0c0.94-0.061,1.881-0.32,2.561-0.801c0.86-0.58,1.42-1.439,1.641-2.42
				l-0.04-0.021c-0.58,0.601-1.44,0.94-2.621,0.94c-2.2,0-4.04-1.521-4.04-4.061c0-2.541,2.04-4.682,4.9-4.682
				c3.341,0,4.921,2.561,4.921,5.602c0,2.721-0.859,4.682-2.28,6.002c-1.24,1.119-2.961,1.72-4.98,1.8
				c-0.501,0.04-1.041,0.021-1.381,0V447.132z M186.76,440.591c0,1.119,0.62,2.08,1.84,2.08c0.841,0,1.421-0.381,1.7-0.84
				c0.101-0.201,0.141-0.4,0.141-0.781c0.02-1.38-0.5-2.74-1.921-2.74C187.5,438.31,186.76,439.23,186.76,440.591z"/>
			<path d="M202.239,435.83h3.041v8.521c0,3.842-1.841,5.182-4.781,5.182c-0.721,0-1.641-0.12-2.24-0.32l0.34-2.461
				c0.42,0.141,0.96,0.24,1.561,0.24c1.28,0,2.08-0.58,2.08-2.66V435.83z"/>
			<path d="M216.94,446.171c0,1.281,0.04,2.32,0.08,3.141h-2.641l-0.141-1.38h-0.06c-0.38,0.601-1.3,1.601-3.061,1.601
				c-2.001,0-3.44-1.24-3.44-4.262v-5.74h3.04v5.261c0,1.421,0.46,2.28,1.541,2.28c0.84,0,1.34-0.58,1.52-1.061
				c0.08-0.18,0.12-0.399,0.12-0.66v-5.82h3.041V446.171z"/>
			<path d="M219.379,435.109h3.04v14.203h-3.04V435.109z"/>
			<path d="M227.159,439.531l1.46,4.82c0.16,0.561,0.36,1.301,0.48,1.82h0.08c0.12-0.539,0.279-1.26,0.42-1.84l1.22-4.801h3.241
				l-2.28,6.441c-1.4,3.9-2.341,5.441-3.441,6.421c-1.04,0.921-2.16,1.261-2.92,1.341l-0.66-2.561c0.38-0.08,0.859-0.261,1.32-0.521
				c0.46-0.24,0.979-0.74,1.26-1.22c0.101-0.16,0.16-0.32,0.16-0.44s-0.02-0.261-0.12-0.501l-3.601-8.961H227.159z"/>
			<path d="M248.32,436.31v1.92l-5.361,11.082h-3.221l5.361-10.462v-0.04h-5.961v-2.5H248.32z"/>
			<path d="M251.038,447.132c0.4,0.039,0.721,0.02,1.32,0c0.94-0.061,1.881-0.32,2.561-0.801c0.86-0.58,1.42-1.439,1.641-2.42
				l-0.04-0.021c-0.58,0.601-1.44,0.94-2.621,0.94c-2.2,0-4.04-1.521-4.04-4.061c0-2.541,2.04-4.682,4.9-4.682
				c3.341,0,4.921,2.561,4.921,5.602c0,2.721-0.859,4.682-2.28,6.002c-1.24,1.119-2.961,1.72-4.98,1.8
				c-0.501,0.04-1.041,0.021-1.381,0V447.132z M252.879,440.591c0,1.119,0.62,2.08,1.84,2.08c0.841,0,1.421-0.381,1.7-0.84
				c0.101-0.201,0.141-0.4,0.141-0.781c0.02-1.38-0.5-2.74-1.921-2.74C253.619,438.31,252.879,439.23,252.879,440.591z"/>
		</g>
		<g>
			<path d="M257.893,481.171c0.801,0.42,2.081,0.841,3.381,0.841c1.4,0,2.141-0.58,2.141-1.46c0-0.841-0.64-1.32-2.261-1.881
				c-2.24-0.801-3.721-2.041-3.721-4.001c0-2.3,1.94-4.041,5.102-4.041c1.54,0,2.641,0.3,3.44,0.681l-0.68,2.44
				c-0.521-0.261-1.501-0.641-2.801-0.641c-1.32,0-1.961,0.62-1.961,1.3c0,0.861,0.74,1.241,2.501,1.901
				c2.381,0.88,3.48,2.12,3.48,4.021c0,2.261-1.72,4.182-5.421,4.182c-1.54,0-3.061-0.421-3.821-0.841L257.893,481.171z"/>
			<path d="M276.795,481.953c0,0.92,0.04,1.82,0.16,2.359h-2.741l-0.18-0.979h-0.061c-0.64,0.78-1.64,1.2-2.8,1.2
				c-1.98,0-3.161-1.44-3.161-3.001c0-2.54,2.28-3.741,5.741-3.741v-0.119c0-0.541-0.28-1.281-1.78-1.281c-1,0-2.061,0.341-2.7,0.74
				l-0.561-1.96c0.68-0.38,2.021-0.88,3.801-0.88c3.261,0,4.281,1.92,4.281,4.24V481.953z M273.854,479.691
				c-1.6,0-2.84,0.381-2.84,1.541c0,0.78,0.52,1.16,1.2,1.16c0.74,0,1.38-0.5,1.58-1.12c0.04-0.16,0.06-0.341,0.06-0.521V479.691z"
				/>
			<path d="M282.453,471.89v2.641h2.181v2.24h-2.181v3.541c0,1.18,0.3,1.721,1.2,1.721c0.42,0,0.62-0.021,0.9-0.08l0.02,2.3
				c-0.38,0.14-1.12,0.261-1.96,0.261c-0.98,0-1.801-0.341-2.301-0.841c-0.561-0.58-0.84-1.521-0.84-2.9v-4.001h-1.301v-2.24h1.301
				v-1.82L282.453,471.89z"/>
			<path d="M295.614,481.171c0,1.281,0.04,2.32,0.08,3.141h-2.641l-0.141-1.38h-0.06c-0.38,0.601-1.3,1.601-3.061,1.601
				c-2.001,0-3.44-1.24-3.44-4.262v-5.74h3.04v5.261c0,1.421,0.46,2.28,1.541,2.28c0.84,0,1.34-0.58,1.52-1.061
				c0.08-0.18,0.12-0.399,0.12-0.66v-5.82h3.041V481.171z"/>
			<path d="M298.053,477.751c0-1.44-0.021-2.381-0.08-3.221h2.601l0.119,1.8h0.08c0.501-1.44,1.681-2.04,2.641-2.04
				c0.28,0,0.421,0.02,0.641,0.061v2.859c-0.24-0.039-0.48-0.08-0.82-0.08c-1.12,0-1.881,0.601-2.08,1.541
				c-0.04,0.2-0.061,0.439-0.061,0.68v4.961h-3.04V477.751z"/>
			<path d="M305.652,477.651c0-1.22-0.04-2.24-0.08-3.12h2.641l0.14,1.359h0.06c0.4-0.64,1.381-1.58,3.021-1.58
				c2,0,3.5,1.341,3.5,4.221v5.781h-3.04v-5.421c0-1.261-0.44-2.12-1.541-2.12c-0.84,0-1.34,0.58-1.56,1.141
				c-0.08,0.199-0.101,0.479-0.101,0.76v5.641h-3.04V477.651z"/>
			<path d="M261.193,493.01h-0.04l-2.48,1.181l-0.5-2.281l3.461-1.6h2.501v13.002h-2.941V493.01z"/>
			<path d="M268.433,503.312v-1.84l1.66-1.5c2.86-2.561,4.241-4.021,4.261-5.541c0-1.061-0.62-1.9-2.12-1.9
				c-1.12,0-2.101,0.56-2.78,1.06l-0.86-2.16c0.96-0.74,2.5-1.341,4.24-1.341c2.961,0,4.562,1.721,4.562,4.061
				c0,2.201-1.561,3.941-3.461,5.622l-1.2,1v0.04h4.921v2.5H268.433z"/>
			<path d="M284.032,503.312V489.83h3.561l2.801,4.941c0.8,1.42,1.58,3.101,2.2,4.621h0.04c-0.18-1.781-0.24-3.602-0.24-5.642
				v-3.921h2.801v13.482h-3.2l-2.881-5.201c-0.8-1.439-1.7-3.18-2.341-4.76h-0.08c0.101,1.8,0.141,3.7,0.141,5.9v4.061H284.032z"/>
			<path d="M307.334,498.312c0,3.58-2.54,5.221-5.16,5.221c-2.861,0-5.062-1.881-5.062-5.041c0-3.181,2.08-5.201,5.241-5.201
				C305.334,493.291,307.334,495.351,307.334,498.312z M300.253,498.412c0,1.68,0.7,2.94,2,2.94c1.201,0,1.94-1.181,1.94-2.96
				c0-1.441-0.56-2.922-1.94-2.922C300.813,495.47,300.253,496.971,300.253,498.412z"/>
			<path d="M311.293,493.531l1.32,4.541c0.24,0.84,0.4,1.6,0.561,2.38h0.06c0.16-0.8,0.32-1.54,0.54-2.38l1.261-4.541h3.2
				l-3.641,9.781h-3.04l-3.562-9.781H311.293z"/>
			<path d="M325.413,496.611c-1.261-0.66-1.881-1.721-1.881-2.86c0-2.2,1.98-3.661,4.581-3.661c3.041,0,4.301,1.761,4.301,3.341
				c0,1.12-0.6,2.221-1.9,2.86v0.061c1.28,0.48,2.4,1.561,2.4,3.221c0,2.36-1.98,3.961-5.001,3.961c-3.301,0-4.821-1.86-4.821-3.621
				c0-1.561,0.9-2.641,2.321-3.261V496.611z M329.813,499.812c0-1.141-0.86-1.82-2.04-2.141c-1,0.279-1.58,1-1.58,1.94
				c-0.021,0.94,0.7,1.82,1.84,1.82C329.094,501.432,329.813,500.732,329.813,499.812z M326.413,493.65
				c0,0.881,0.78,1.441,1.82,1.761c0.7-0.2,1.32-0.84,1.32-1.64c0-0.82-0.46-1.621-1.58-1.621
				C326.934,492.15,326.413,492.85,326.413,493.65z"/>
			<path d="M343.994,496.751c0,4-1.62,6.781-4.921,6.781c-3.361,0-4.842-3.021-4.861-6.701c0-3.781,1.58-6.742,4.941-6.742
				C342.613,490.089,343.994,493.191,343.994,496.751z M337.253,496.832c0,2.98,0.72,4.4,1.88,4.4c1.181,0,1.82-1.48,1.82-4.441
				c0-2.88-0.62-4.4-1.84-4.4C338.013,492.39,337.253,493.791,337.253,496.832z"/>
		</g>
		<g>
			<path d="M351.892,563.839c0.801,0.42,2.081,0.841,3.381,0.841c1.4,0,2.141-0.58,2.141-1.46c0-0.841-0.64-1.32-2.261-1.881
				c-2.24-0.801-3.721-2.041-3.721-4.001c0-2.3,1.94-4.041,5.102-4.041c1.54,0,2.641,0.3,3.44,0.681l-0.68,2.44
				c-0.521-0.261-1.501-0.641-2.801-0.641c-1.32,0-1.961,0.62-1.961,1.3c0,0.861,0.74,1.241,2.501,1.901
				c2.381,0.88,3.48,2.12,3.48,4.021c0,2.261-1.72,4.182-5.421,4.182c-1.54,0-3.061-0.421-3.821-0.841L351.892,563.839z"/>
			<path d="M370.794,564.621c0,0.92,0.04,1.82,0.16,2.359h-2.741l-0.18-0.979h-0.061c-0.64,0.78-1.64,1.2-2.8,1.2
				c-1.98,0-3.161-1.44-3.161-3.001c0-2.54,2.28-3.741,5.741-3.741v-0.119c0-0.541-0.28-1.281-1.78-1.281c-1,0-2.061,0.341-2.7,0.74
				l-0.561-1.96c0.68-0.38,2.021-0.88,3.801-0.88c3.261,0,4.281,1.92,4.281,4.24V564.621z M367.853,562.359
				c-1.6,0-2.84,0.381-2.84,1.541c0,0.78,0.52,1.16,1.2,1.16c0.74,0,1.38-0.5,1.58-1.12c0.04-0.16,0.06-0.341,0.06-0.521V562.359z"
				/>
			<path d="M376.452,554.558v2.641h2.181v2.24h-2.181v3.541c0,1.18,0.3,1.721,1.2,1.721c0.42,0,0.62-0.021,0.9-0.08l0.02,2.3
				c-0.38,0.14-1.12,0.261-1.96,0.261c-0.98,0-1.801-0.341-2.301-0.841c-0.561-0.58-0.84-1.521-0.84-2.9v-4.001h-1.301v-2.24h1.301
				v-1.82L376.452,554.558z"/>
			<path d="M389.613,563.839c0,1.281,0.04,2.32,0.08,3.141h-2.641l-0.141-1.38h-0.06c-0.38,0.601-1.3,1.601-3.061,1.601
				c-2.001,0-3.44-1.24-3.44-4.262v-5.74h3.04v5.261c0,1.421,0.46,2.28,1.541,2.28c0.84,0,1.34-0.58,1.52-1.061
				c0.08-0.18,0.12-0.399,0.12-0.66v-5.82h3.041V563.839z"/>
			<path d="M392.052,560.419c0-1.44-0.021-2.381-0.08-3.221h2.601l0.119,1.8h0.08c0.501-1.44,1.681-2.04,2.641-2.04
				c0.28,0,0.421,0.02,0.641,0.061v2.859c-0.24-0.039-0.48-0.08-0.82-0.08c-1.12,0-1.881,0.601-2.08,1.541
				c-0.04,0.2-0.061,0.439-0.061,0.68v4.961h-3.04V560.419z"/>
			<path d="M399.651,560.319c0-1.22-0.04-2.24-0.08-3.12h2.641l0.14,1.359h0.06c0.4-0.64,1.381-1.58,3.021-1.58
				c2,0,3.5,1.341,3.5,4.221v5.781h-3.04v-5.421c0-1.261-0.44-2.12-1.541-2.12c-0.84,0-1.34,0.58-1.56,1.141
				c-0.08,0.199-0.101,0.479-0.101,0.76v5.641h-3.04V560.319z"/>
			<path d="M351.332,585.98v-1.84l1.66-1.5c2.86-2.561,4.241-4.021,4.261-5.541c0-1.061-0.62-1.9-2.12-1.9
				c-1.12,0-2.101,0.56-2.78,1.06l-0.86-2.16c0.96-0.74,2.5-1.341,4.24-1.341c2.961,0,4.562,1.721,4.562,4.061
				c0,2.201-1.561,3.941-3.461,5.622l-1.2,1v0.04h4.921v2.5H351.332z"/>
			<path d="M371.094,575.478h-5.042l-0.279,2c0.279-0.039,0.52-0.039,0.84-0.039c1.24,0,2.521,0.279,3.421,0.939
				c0.98,0.66,1.58,1.74,1.58,3.262c0,2.42-2.08,4.561-5.581,4.561c-1.58,0-2.9-0.36-3.621-0.74l0.561-2.281
				c0.56,0.281,1.74,0.641,2.921,0.641c1.26,0,2.601-0.6,2.601-1.98c0-1.34-1.061-2.16-3.661-2.16c-0.72,0-1.221,0.04-1.74,0.12
				l0.84-6.821h7.162V575.478z"/>
			<path d="M381.172,582.519l-0.96,3.461h-3.141l4.101-13.482h4.001l4.201,13.482h-3.301l-1.041-3.461H381.172z M384.593,580.24
				l-0.84-2.861c-0.24-0.8-0.48-1.801-0.681-2.601h-0.04c-0.2,0.8-0.4,1.821-0.62,2.601l-0.8,2.861H384.593z"/>
			<path d="M399.974,582.839c0,1.281,0.04,2.32,0.08,3.141h-2.641l-0.141-1.38h-0.06c-0.38,0.601-1.3,1.601-3.061,1.601
				c-2.001,0-3.44-1.24-3.44-4.262v-5.74h3.04v5.261c0,1.421,0.46,2.28,1.54,2.28c0.841,0,1.341-0.58,1.521-1.061
				c0.08-0.18,0.12-0.399,0.12-0.66v-5.82h3.041V582.839z"/>
			<path d="M411.674,584.56c0,1.881-0.38,3.421-1.501,4.4c-1.06,0.921-2.521,1.201-3.96,1.201c-1.301,0-2.641-0.26-3.521-0.74
				l0.601-2.32c0.62,0.359,1.681,0.74,2.841,0.74c1.44,0,2.54-0.761,2.54-2.581v-0.62h-0.04c-0.58,0.801-1.521,1.26-2.641,1.26
				c-2.42,0-4.141-1.96-4.141-4.76c0-3.161,2.021-5.162,4.441-5.162c1.34,0,2.18,0.58,2.68,1.4h0.04l0.101-1.18h2.641
				c-0.04,0.64-0.08,1.46-0.08,2.92V584.56z M408.633,580.179c0-0.18-0.02-0.38-0.06-0.561c-0.221-0.8-0.801-1.34-1.641-1.34
				c-1.12,0-2,1-2,2.781c0,1.459,0.72,2.6,1.98,2.6c0.8,0,1.42-0.52,1.62-1.22c0.08-0.24,0.1-0.561,0.1-0.82V580.179z"/>
			<path d="M419.892,579.279c-1.261-0.66-1.881-1.721-1.881-2.86c0-2.2,1.98-3.661,4.581-3.661c3.041,0,4.301,1.761,4.301,3.341
				c0,1.12-0.6,2.221-1.9,2.86v0.061c1.28,0.48,2.4,1.561,2.4,3.221c0,2.36-1.98,3.961-5.001,3.961c-3.301,0-4.82-1.86-4.82-3.621
				c0-1.561,0.899-2.641,2.32-3.261V579.279z M424.292,582.48c0-1.141-0.86-1.82-2.04-2.141c-1,0.279-1.58,1-1.58,1.94
				c-0.021,0.94,0.7,1.82,1.84,1.82C423.572,584.1,424.292,583.4,424.292,582.48z M420.892,576.318c0,0.881,0.78,1.441,1.82,1.761
				c0.7-0.2,1.32-0.84,1.32-1.64c0-0.82-0.46-1.621-1.58-1.621C421.411,574.818,420.892,575.518,420.892,576.318z"/>
			<path d="M432.751,575.678h-0.04l-2.48,1.181l-0.5-2.281l3.461-1.6h2.501v13.002h-2.941V575.678z"/>
		</g>
		<g>
			<path d="M541.833,382.162v7.742c0,2.34,0.899,3.52,2.44,3.52c1.6,0,2.48-1.119,2.48-3.52v-7.742h3.04v7.562
				c0,4.161-2.1,6.142-5.621,6.142c-3.4,0-5.381-1.9-5.381-6.182v-7.521H541.833z"/>
			<path d="M552.332,389.083c0-1.44-0.021-2.381-0.08-3.221h2.601l0.119,1.8h0.08c0.501-1.44,1.681-2.04,2.641-2.04
				c0.28,0,0.421,0.02,0.641,0.061v2.859c-0.24-0.039-0.48-0.08-0.82-0.08c-1.12,0-1.881,0.601-2.08,1.541
				c-0.04,0.2-0.061,0.439-0.061,0.68v4.961h-3.04V389.083z"/>
			<path d="M567.854,393.285c0,0.92,0.04,1.82,0.16,2.359h-2.741l-0.18-0.979h-0.061c-0.64,0.78-1.64,1.2-2.8,1.2
				c-1.98,0-3.161-1.44-3.161-3.001c0-2.54,2.28-3.741,5.741-3.741v-0.119c0-0.541-0.28-1.281-1.78-1.281c-1,0-2.061,0.341-2.7,0.74
				l-0.561-1.96c0.68-0.38,2.021-0.88,3.801-0.88c3.261,0,4.281,1.92,4.281,4.24V393.285z M564.912,391.023
				c-1.6,0-2.84,0.381-2.84,1.541c0,0.78,0.52,1.16,1.2,1.16c0.74,0,1.38-0.5,1.58-1.12c0.04-0.16,0.06-0.341,0.06-0.521V391.023z"
				/>
			<path d="M570.272,388.983c0-1.22-0.04-2.24-0.08-3.12h2.641l0.14,1.359h0.06c0.4-0.64,1.381-1.58,3.021-1.58
				c2,0,3.5,1.341,3.5,4.221v5.781h-3.04v-5.421c0-1.261-0.44-2.12-1.541-2.12c-0.84,0-1.34,0.58-1.56,1.141
				c-0.08,0.199-0.101,0.479-0.101,0.76v5.641h-3.04V388.983z"/>
			<path d="M591.214,392.503c0,1.281,0.04,2.32,0.08,3.141h-2.641l-0.141-1.38h-0.06c-0.38,0.601-1.3,1.601-3.061,1.601
				c-2.001,0-3.44-1.24-3.44-4.262v-5.74h3.04v5.261c0,1.421,0.46,2.28,1.54,2.28c0.841,0,1.341-0.58,1.521-1.061
				c0.08-0.18,0.12-0.399,0.12-0.66v-5.82h3.041V392.503z"/>
			<path d="M593.632,393.003c0.561,0.341,1.721,0.721,2.621,0.721c0.92,0,1.3-0.301,1.3-0.801c0-0.52-0.3-0.76-1.42-1.14
				c-2.041-0.681-2.821-1.78-2.801-2.94c0-1.841,1.561-3.221,3.98-3.221c1.141,0,2.141,0.279,2.741,0.58l-0.521,2.1
				c-0.44-0.239-1.301-0.56-2.12-0.56c-0.74,0-1.16,0.3-1.16,0.78s0.38,0.721,1.58,1.141c1.86,0.64,2.62,1.6,2.641,3.021
				c0,1.841-1.421,3.181-4.221,3.181c-1.28,0-2.421-0.301-3.161-0.7L593.632,393.003z"/>
			<path d="M538.332,414.644v-1.84l1.66-1.5c2.86-2.561,4.241-4.021,4.261-5.541c0-1.061-0.62-1.9-2.12-1.9
				c-1.12,0-2.101,0.56-2.78,1.06l-0.86-2.16c0.96-0.74,2.5-1.341,4.24-1.341c2.961,0,4.562,1.721,4.562,4.061
				c0,2.201-1.561,3.941-3.461,5.622l-1.2,1v0.04h4.921v2.5H538.332z"/>
			<path d="M554.793,414.644v-3.1h-5.762v-1.98l4.901-7.922h3.74v7.621h1.541v2.281h-1.541v3.1H554.793z M554.793,409.263v-2.881
				c0-0.779,0.04-1.58,0.08-2.42h-0.061c-0.42,0.84-0.78,1.6-1.22,2.42l-1.721,2.841l-0.021,0.04H554.793z"/>
			<path d="M567.672,401.162h3.041v8.521c0,3.842-1.841,5.182-4.781,5.182c-0.721,0-1.641-0.12-2.24-0.32l0.34-2.461
				c0.42,0.141,0.96,0.24,1.561,0.24c1.28,0,2.08-0.58,2.08-2.66V401.162z"/>
			<path d="M581.193,412.285c0,0.92,0.04,1.82,0.16,2.359h-2.741l-0.18-0.979h-0.061c-0.64,0.78-1.64,1.2-2.8,1.2
				c-1.98,0-3.161-1.44-3.161-3.001c0-2.54,2.28-3.741,5.741-3.741v-0.119c0-0.541-0.28-1.281-1.78-1.281c-1,0-2.061,0.341-2.7,0.74
				l-0.561-1.96c0.68-0.38,2.021-0.88,3.801-0.88c3.261,0,4.281,1.92,4.281,4.24V412.285z M578.252,410.023
				c-1.6,0-2.84,0.381-2.84,1.541c0,0.78,0.52,1.16,1.2,1.16c0.74,0,1.38-0.5,1.58-1.12c0.04-0.16,0.06-0.341,0.06-0.521V410.023z"
				/>
			<path d="M583.612,407.983c0-1.22-0.04-2.24-0.08-3.12h2.641l0.14,1.359h0.06c0.4-0.64,1.381-1.58,3.021-1.58
				c2,0,3.5,1.341,3.5,4.221v5.781h-3.04v-5.421c0-1.261-0.44-2.12-1.541-2.12c-0.84,0-1.34,0.58-1.56,1.141
				c-0.08,0.199-0.101,0.479-0.101,0.76v5.641h-3.04V407.983z"/>
			<path d="M601.112,407.943c-1.261-0.66-1.881-1.721-1.881-2.86c0-2.2,1.98-3.661,4.581-3.661c3.041,0,4.301,1.761,4.301,3.341
				c0,1.12-0.6,2.221-1.9,2.86v0.061c1.28,0.48,2.4,1.561,2.4,3.221c0,2.36-1.98,3.961-5.001,3.961c-3.301,0-4.82-1.86-4.82-3.621
				c0-1.561,0.899-2.641,2.32-3.261V407.943z M605.513,411.144c0-1.141-0.86-1.82-2.04-2.141c-1,0.279-1.58,1-1.58,1.94
				c-0.021,0.94,0.7,1.82,1.84,1.82C604.793,412.764,605.513,412.064,605.513,411.144z M602.112,404.982
				c0,0.881,0.78,1.441,1.82,1.761c0.7-0.2,1.32-0.84,1.32-1.64c0-0.82-0.46-1.621-1.58-1.621
				C602.632,403.482,602.112,404.182,602.112,404.982z"/>
			<path d="M618.393,403.802c-0.34-0.02-0.7,0-1.18,0.04c-2.701,0.22-3.901,1.601-4.241,3.101h0.061c0.64-0.641,1.56-1.02,2.76-1.02
				c2.181,0,4.021,1.539,4.021,4.24c0,2.58-1.98,4.701-4.781,4.701c-3.48,0-5.181-2.58-5.181-5.682c0-2.44,0.899-4.48,2.32-5.801
				c1.28-1.181,2.98-1.801,5.001-1.9c0.56-0.061,0.94-0.04,1.22-0.02V403.802z M616.732,410.324c0-1.2-0.64-2.24-1.94-2.24
				c-0.82,0-1.5,0.5-1.78,1.14c-0.1,0.181-0.14,0.421-0.14,0.78c0.06,1.381,0.72,2.621,2.12,2.621
				C616.053,412.625,616.732,411.644,616.732,410.324z"/>
		</g>
		<g>
			<path d="M664.125,276.313v-13.483h3.561l2.801,4.941c0.8,1.42,1.58,3.101,2.2,4.621h0.04c-0.18-1.78-0.24-3.601-0.24-5.641
				v-3.921h2.801v13.483h-3.2l-2.881-5.201c-0.8-1.44-1.7-3.181-2.341-4.761h-0.08c0.101,1.8,0.141,3.701,0.141,5.901v4.061H664.125
				z"/>
			<path d="M680.105,272.393c0.08,1.26,1.341,1.86,2.761,1.86c1.04,0,1.881-0.14,2.7-0.42l0.4,2.061c-1,0.42-2.221,0.62-3.541,0.62
				c-3.32,0-5.221-1.92-5.221-4.981c0-2.48,1.54-5.221,4.941-5.221c3.16,0,4.36,2.46,4.36,4.881c0,0.52-0.06,0.98-0.1,1.2H680.105z
				 M683.687,270.312c0-0.74-0.32-1.98-1.721-1.98c-1.28,0-1.8,1.181-1.88,1.98H683.687z"/>
			<path d="M688.325,269.812c0-1.28-0.04-2.36-0.08-3.281h2.641l0.14,1.36h0.04c0.72-1.02,1.84-1.58,3.261-1.58
				c2.141,0,4.061,1.86,4.061,4.981c0,3.561-2.261,5.241-4.44,5.241c-1.181,0-2.101-0.48-2.541-1.121h-0.04v4.861h-3.04V269.812z
				 M691.365,272.113c0,0.24,0.021,0.44,0.061,0.64c0.199,0.82,0.899,1.44,1.78,1.44c1.32,0,2.101-1.1,2.101-2.76
				c0-1.561-0.7-2.741-2.061-2.741c-0.86,0-1.621,0.64-1.82,1.54c-0.04,0.16-0.061,0.36-0.061,0.541V272.113z"/>
			<path d="M703.686,263.891v2.641h2.181v2.241h-2.181v3.541c0,1.18,0.3,1.721,1.2,1.721c0.42,0,0.62-0.02,0.9-0.08l0.02,2.3
				c-0.38,0.14-1.12,0.26-1.96,0.26c-0.98,0-1.801-0.34-2.301-0.84c-0.561-0.58-0.84-1.521-0.84-2.9v-4.001h-1.301v-2.241h1.301
				v-1.82L703.686,263.891z"/>
			<path d="M716.847,273.173c0,1.28,0.04,2.32,0.08,3.141h-2.641l-0.141-1.38h-0.06c-0.38,0.6-1.3,1.601-3.061,1.601
				c-2.001,0-3.44-1.24-3.44-4.261v-5.741h3.04v5.261c0,1.42,0.46,2.28,1.541,2.28c0.84,0,1.34-0.58,1.52-1.06
				c0.08-0.18,0.12-0.4,0.12-0.66v-5.821h3.041V273.173z"/>
			<path d="M719.285,269.652c0-1.22-0.04-2.24-0.08-3.121h2.641l0.14,1.36h0.06c0.4-0.64,1.381-1.58,3.021-1.58
				c2,0,3.5,1.34,3.5,4.221v5.781h-3.04v-5.421c0-1.26-0.44-2.12-1.541-2.12c-0.84,0-1.34,0.58-1.56,1.14
				c-0.08,0.2-0.101,0.48-0.101,0.76v5.641h-3.04V269.652z"/>
			<path d="M733.345,272.393c0.08,1.26,1.341,1.86,2.761,1.86c1.04,0,1.881-0.14,2.7-0.42l0.4,2.061c-1,0.42-2.221,0.62-3.541,0.62
				c-3.32,0-5.221-1.92-5.221-4.981c0-2.48,1.54-5.221,4.941-5.221c3.16,0,4.36,2.46,4.36,4.881c0,0.52-0.06,0.98-0.1,1.2H733.345z
				 M736.926,270.312c0-0.74-0.32-1.98-1.721-1.98c-1.28,0-1.8,1.181-1.88,1.98H736.926z"/>
			<path d="M663.665,295.313v-1.84l1.66-1.5c2.86-2.561,4.241-4.021,4.261-5.541c0-1.06-0.62-1.9-2.12-1.9
				c-1.12,0-2.101,0.56-2.78,1.06l-0.86-2.16c0.96-0.74,2.5-1.34,4.24-1.34c2.961,0,4.562,1.72,4.562,4.061
				c0,2.201-1.561,3.941-3.461,5.622l-1.2,1v0.04h4.921v2.5H663.665z"/>
			<path d="M683.427,284.811h-5.042l-0.279,2c0.279-0.04,0.52-0.04,0.84-0.04c1.24,0,2.521,0.28,3.421,0.94
				c0.98,0.66,1.58,1.74,1.58,3.261c0,2.42-2.08,4.561-5.581,4.561c-1.58,0-2.9-0.36-3.621-0.74l0.561-2.281
				c0.56,0.28,1.74,0.64,2.921,0.64c1.26,0,2.601-0.6,2.601-1.98c0-1.34-1.061-2.16-3.661-2.16c-0.72,0-1.221,0.04-1.74,0.12
				l0.84-6.822h7.162V284.811z"/>
			<path d="M693.505,291.853l-0.96,3.461h-3.141l4.101-13.483h4.001l4.201,13.483h-3.301l-1.041-3.461H693.505z M696.926,289.572
				l-0.84-2.861c-0.24-0.8-0.48-1.8-0.681-2.601h-0.04c-0.2,0.8-0.4,1.821-0.62,2.601l-0.8,2.861H696.926z"/>
			<path d="M712.307,292.173c0,1.28,0.04,2.32,0.08,3.141h-2.641l-0.141-1.38h-0.06c-0.38,0.6-1.3,1.601-3.061,1.601
				c-2.001,0-3.44-1.24-3.44-4.261v-5.741h3.04v5.261c0,1.42,0.46,2.28,1.54,2.28c0.841,0,1.341-0.58,1.521-1.06
				c0.08-0.18,0.12-0.4,0.12-0.66v-5.821h3.041V292.173z"/>
			<path d="M724.007,293.893c0,1.88-0.38,3.421-1.501,4.401c-1.06,0.92-2.521,1.2-3.96,1.2c-1.301,0-2.641-0.26-3.521-0.74
				l0.601-2.321c0.62,0.36,1.681,0.74,2.841,0.74c1.44,0,2.54-0.76,2.54-2.581v-0.62h-0.04c-0.58,0.8-1.521,1.26-2.641,1.26
				c-2.42,0-4.141-1.96-4.141-4.761c0-3.161,2.021-5.161,4.441-5.161c1.34,0,2.18,0.58,2.68,1.4h0.04l0.101-1.18h2.641
				c-0.04,0.64-0.08,1.46-0.08,2.921V293.893z M720.966,289.512c0-0.18-0.02-0.38-0.06-0.56c-0.221-0.8-0.801-1.34-1.641-1.34
				c-1.12,0-2,1-2,2.781c0,1.46,0.72,2.601,1.98,2.601c0.8,0,1.42-0.521,1.62-1.22c0.08-0.24,0.1-0.561,0.1-0.82V289.512z"/>
			<path d="M732.225,288.612c-1.261-0.66-1.881-1.72-1.881-2.86c0-2.201,1.98-3.661,4.581-3.661c3.041,0,4.301,1.76,4.301,3.34
				c0,1.121-0.6,2.221-1.9,2.861v0.06c1.28,0.48,2.4,1.56,2.4,3.221c0,2.36-1.98,3.961-5.001,3.961c-3.301,0-4.82-1.86-4.82-3.621
				c0-1.56,0.899-2.641,2.32-3.261V288.612z M736.625,291.813c0-1.14-0.86-1.82-2.04-2.14c-1,0.28-1.58,1-1.58,1.94
				c-0.021,0.94,0.7,1.82,1.84,1.82C735.905,293.433,736.625,292.733,736.625,291.813z M733.225,285.651c0,0.88,0.78,1.44,1.82,1.76
				c0.7-0.2,1.32-0.84,1.32-1.64c0-0.82-0.46-1.621-1.58-1.621C733.744,284.151,733.225,284.851,733.225,285.651z"/>
			<path d="M742.144,293.133c0.4,0.04,0.721,0.02,1.32,0c0.94-0.06,1.881-0.32,2.561-0.8c0.86-0.58,1.42-1.44,1.641-2.421
				l-0.04-0.02c-0.58,0.601-1.44,0.94-2.621,0.94c-2.2,0-4.04-1.521-4.04-4.061s2.04-4.681,4.9-4.681
				c3.341,0,4.921,2.561,4.921,5.601c0,2.721-0.859,4.681-2.28,6.001c-1.24,1.12-2.961,1.72-4.98,1.8
				c-0.501,0.04-1.041,0.02-1.381,0V293.133z M743.984,286.592c0,1.12,0.62,2.08,1.84,2.08c0.841,0,1.421-0.38,1.7-0.84
				c0.101-0.2,0.141-0.4,0.141-0.78c0.02-1.38-0.5-2.741-1.921-2.741C744.725,284.311,743.984,285.231,743.984,286.592z"/>
		</g>
	</g>
</g>
</svg>
